<svg viewBox="0 0 64 64" fill="none" xmlns="http://www.w3.org/2000/svg" alt="Twitter" class="c-dwgbfV"><path d="M60 14.456a22.82 22.82 0 0 1-6.597 1.827 11.617 11.617 0 0 0 5.05-6.424 22.794 22.794 0 0 1-7.295 2.816 11.457 11.457 0 0 0-6.52-3.52 11.39 11.39 0 0 0-7.293 1.22 11.566 11.566 0 0 0-5.049 5.456 11.725 11.725 0 0 0-.715 7.435 32.365 32.365 0 0 1-13.117-3.522 32.693 32.693 0 0 1-10.565-8.61 11.697 11.697 0 0 0-1.554 5.837 11.71 11.71 0 0 0 1.357 5.48 11.57 11.57 0 0 0 3.754 4.184 11.371 11.371 0 0 1-5.204-1.453v.15c0 2.68.917 5.279 2.597 7.354a11.472 11.472 0 0 0 6.62 4.03 11.455 11.455 0 0 1-5.19.199 11.613 11.613 0 0 0 4.088 5.769 11.419 11.419 0 0 0 6.646 2.29 22.904 22.904 0 0 1-14.27 4.972c-.917 0-1.833-.054-2.743-.162A32.25 32.25 0 0 0 21.61 55C42.745 55 54.3 37.311 54.3 21.97c0-.498-.012-1.002-.034-1.5a23.492 23.492 0 0 0 5.73-6.006l.004-.008Z"></path></svg>