<svg xmlns="http://www.w3.org/2000/svg" viewBox="0 0 124.7 169.48"><g data-name="Layer 2"><path d="M62.35 157c3.53-5 7.75-10.55 12.26-16.48 18.08-23.74 41.08-53.95 41.08-78.14A53.34 53.34 0 1 0 9 62.35c0 24.19 23 54.4 41.07 78.14 4.52 5.93 8.74 11.51 12.28 16.51Zm0-122.51a27.89 27.89 0 1 1-19.72 8.17 27.8 27.8 0 0 1 19.72-8.2ZM75.7 49a18.89 18.89 0 1 0 5.53 13.36A18.85 18.85 0 0 0 75.7 49Zm6.06 96.95c-6.12 8-11.68 15.34-15.58 21.4a4.44 4.44 0 0 1-1.4 1.43 4.49 4.49 0 0 1-6.21-1.35c-3.9-6.09-9.49-13.43-15.63-21.43C24.05 121.13 0 89.54 0 62.35a62.35 62.35 0 1 1 124.7 0c0 27.19-24 58.78-42.94 83.6Z" data-name="Layer 1" style="fill: rgb(72, 88, 232);"></path></g></svg>