<svg xmlns="http://www.w3.org/2000/svg" viewBox="0 0 149.87 108.65"><g data-name="Layer 2"><path d="M139.19 1.12c-.19 0-.19-.56-.37-.56-.57 0-1.13-.56-1.88-.56H12.74c-.56 0-1.13.56-1.88.56-.18 0-.18.19-.37.19A13.28 13.28 0 0 0 0 13.68V95a12.71 12.71 0 0 0 10.68 12.55c.19 0 .19.56.37.56.57 0 1.13.56 1.69.56h124.39c.56 0 1.12-.56 1.69-.56.18 0 .18-.18.37-.18a12.91 12.91 0 0 0 10.68-12.74V13.68a12.72 12.72 0 0 0-10.68-12.56ZM101 54.33l41.41-36.91v73.81Zm36.13-46.84a6.31 6.31 0 0 1 4.31 2.06L74.93 68.94 8.43 9.55v-.18a6.25 6.25 0 0 1 4.31-2.06h124.39ZM7.49 17.42l41.4 36.91-41.4 36.9Zm5.25 83.74a6.29 6.29 0 0 1-4.31-2.06L53.39 59l19.3 17.24a3.17 3.17 0 0 0 4.49 0L96.48 59l45 40.28a6.31 6.31 0 0 1-4.31 2.06Z" data-name="Layer 1" style="fill: rgb(72, 88, 232);"></path></g></svg>